<svg width="13" height="11" viewBox="0 0 13 11" fill="none" xmlns="http://www.w3.org/2000/svg">
<path id="Vector" d="M12.6873 5.85373L8.18749 10.3536C8.09368 10.4474 7.96643 10.5001 7.83376 10.5001C7.70108 10.5001 7.57383 10.4474 7.48002 10.3536C7.3862 10.2598 7.33349 10.1325 7.33349 9.99985C7.33349 9.86717 7.3862 9.73992 7.48002 9.64611L11.1268 5.99998H1.33397C1.20136 5.99998 1.07419 5.9473 0.980426 5.85353C0.886661 5.75977 0.833984 5.6326 0.833984 5.49999C0.833984 5.36739 0.886661 5.24022 0.980426 5.14645C1.07419 5.05269 1.20136 5.00001 1.33397 5.00001H11.1268L7.48002 1.35388C7.3862 1.26006 7.33349 1.13282 7.33349 1.00014C7.33349 0.867462 7.3862 0.740218 7.48002 0.646401C7.57383 0.552584 7.70108 0.499878 7.83376 0.499878C7.96643 0.499878 8.09368 0.552584 8.18749 0.646401L12.6873 5.14625C12.7338 5.19269 12.7707 5.24783 12.7959 5.30853C12.821 5.36923 12.834 5.43429 12.834 5.49999C12.834 5.5657 12.821 5.63076 12.7959 5.69146C12.7707 5.75215 12.7338 5.8073 12.6873 5.85373Z" fill="#302621"/>
</svg>
